<svg width="148" height="36" viewBox="0 0 148 36" fill="none" xmlns="http://www.w3.org/2000/svg">
<path d="M59.124 22.144C58.508 22.144 57.968 22.036 57.504 21.82C57.04 21.604 56.676 21.296 56.412 20.896C56.156 20.496 56.024 20.02 56.016 19.468H57.36C57.368 19.916 57.524 20.296 57.828 20.608C58.132 20.92 58.56 21.076 59.112 21.076C59.6 21.076 59.98 20.96 60.252 20.728C60.532 20.488 60.672 20.184 60.672 19.816C60.672 19.52 60.604 19.28 60.468 19.096C60.34 18.912 60.16 18.76 59.928 18.64C59.704 18.52 59.444 18.412 59.148 18.316C58.852 18.22 58.54 18.116 58.212 18.004C57.564 17.788 57.076 17.508 56.748 17.164C56.428 16.82 56.268 16.368 56.268 15.808C56.26 15.336 56.368 14.924 56.592 14.572C56.824 14.22 57.144 13.948 57.552 13.756C57.968 13.556 58.452 13.456 59.004 13.456C59.548 13.456 60.024 13.556 60.432 13.756C60.848 13.956 61.172 14.236 61.404 14.596C61.636 14.948 61.756 15.36 61.764 15.832H60.42C60.42 15.616 60.364 15.412 60.252 15.22C60.14 15.02 59.976 14.856 59.76 14.728C59.544 14.6 59.28 14.536 58.968 14.536C58.568 14.528 58.236 14.628 57.972 14.836C57.716 15.044 57.588 15.332 57.588 15.7C57.588 16.028 57.684 16.28 57.876 16.456C58.068 16.632 58.332 16.78 58.668 16.9C59.004 17.012 59.388 17.144 59.82 17.296C60.236 17.432 60.608 17.596 60.936 17.788C61.264 17.98 61.524 18.232 61.716 18.544C61.916 18.856 62.016 19.252 62.016 19.732C62.016 20.156 61.908 20.552 61.692 20.92C61.476 21.28 61.152 21.576 60.72 21.808C60.288 22.032 59.756 22.144 59.124 22.144ZM63.4067 22V13.6H66.3467C67.0027 13.6 67.5467 13.712 67.9787 13.936C68.4107 14.152 68.7307 14.452 68.9387 14.836C69.1547 15.212 69.2627 15.64 69.2627 16.12C69.2627 16.576 69.1587 16.996 68.9507 17.38C68.7507 17.756 68.4347 18.056 68.0027 18.28C67.5707 18.504 67.0187 18.616 66.3467 18.616H64.6787V22H63.4067ZM64.6787 17.572H66.2867C66.8867 17.572 67.3147 17.444 67.5707 17.188C67.8347 16.924 67.9667 16.568 67.9667 16.12C67.9667 15.656 67.8347 15.296 67.5707 15.04C67.3147 14.776 66.8867 14.644 66.2867 14.644H64.6787V17.572ZM69.0073 22L72.1033 13.6H73.4953L76.5673 22H75.2233L74.5033 19.948H71.0713L70.3513 22H69.0073ZM71.4313 18.94H74.1433L72.7873 15.112L71.4313 18.94ZM81.0023 22.144C80.1703 22.144 79.4503 21.964 78.8423 21.604C78.2423 21.236 77.7783 20.728 77.4503 20.08C77.1223 19.424 76.9583 18.668 76.9583 17.812C76.9583 16.948 77.1223 16.192 77.4503 15.544C77.7783 14.888 78.2423 14.376 78.8423 14.008C79.4503 13.64 80.1703 13.456 81.0023 13.456C81.9863 13.456 82.7903 13.696 83.4143 14.176C84.0383 14.656 84.4343 15.328 84.6023 16.192H83.1862C83.0742 15.704 82.8342 15.316 82.4662 15.028C82.0983 14.74 81.6063 14.596 80.9903 14.596C80.1503 14.596 79.4863 14.884 78.9983 15.46C78.5103 16.028 78.2663 16.812 78.2663 17.812C78.2663 18.804 78.5103 19.584 78.9983 20.152C79.4863 20.72 80.1503 21.004 80.9903 21.004C81.6063 21.004 82.0983 20.868 82.4662 20.596C82.8342 20.324 83.0742 19.952 83.1862 19.48H84.6023C84.4343 20.312 84.0383 20.964 83.4143 21.436C82.7903 21.908 81.9863 22.144 81.0023 22.144ZM86.0004 22V13.6H91.3404V14.632H87.2724V17.248H90.9804V18.256H87.2724V20.968H91.3404V22H86.0004Z" fill="white" fill-opacity="0.8"/>
<rect x="1" y="1" width="146" height="34" rx="7" stroke="white" stroke-opacity="0.8" stroke-width="2"/>
</svg>
